<svg width="20" height="20" viewBox="0 0 20 20" fill="none" xmlns="http://www.w3.org/2000/svg">
<path d="M16.6666 5.93066C16.6666 7.31138 15.5473 8.43066 14.1666 8.43066C12.7859 8.43066 11.6666 7.31138 11.6666 5.93066C11.6666 4.54995 12.7859 3.43066 14.1666 3.43066C15.5473 3.43066 16.6666 4.54995 16.6666 5.93066Z" fill="currentColor"/>
<path d="M8.33325 14.264C8.33325 15.6447 7.21396 16.764 5.83325 16.764C4.45254 16.764 3.33325 15.6447 3.33325 14.264C3.33325 12.8833 4.45254 11.764 5.83325 11.764C7.21396 11.764 8.33325 12.8833 8.33325 14.264Z" fill="currentColor"/>
<path d="M8.33325 5.93066C8.33325 7.31138 7.21396 8.43066 5.83325 8.43066C4.45254 8.43066 3.33325 7.31138 3.33325 5.93066C3.33325 4.54995 4.45254 3.43066 5.83325 3.43066C7.21396 3.43066 8.33325 4.54995 8.33325 5.93066Z" fill="currentColor"/>
<path d="M14.7221 17.7362H14.2259V15.256H11.3888C12.3607 13.9462 13.1844 12.2897 13.611 10.7918H14.1073V13.272H16.9444C15.9725 14.5818 15.1488 16.2383 14.7221 17.7362Z" fill="currentColor"/>
</svg>
