<svg width="24" height="24" viewBox="0 0 24 24" fill="none" xmlns="http://www.w3.org/2000/svg">
<path d="M19.345 6.61932L17.3806 7.12801V5.42832L9.63733 7.43322V6.46976L4.39746 7.82677V8.27576H22V14.8564C21.0838 13.8202 19.7435 13.1665 18.25 13.1665C15.4886 13.1665 13.25 15.4009 13.25 18.1571C13.25 19.703 13.9546 21.0846 15.0603 22H2V6.49078L19.345 2V6.61932Z" fill="currentColor"/>
<path fillRule="evenodd" clipRule="evenodd" d="M18.25 14.4141C20.3219 14.4141 22 16.0891 22 18.1571C22 20.2251 20.3219 21.9001 18.25 21.9001C16.1782 21.9 14.5 20.2251 14.5 18.1571C14.5 16.0892 16.1782 14.4142 18.25 14.4141ZM17.6876 15.7242L17.7156 18.4191L19.3187 20.0286L20.1158 19.2333L18.8033 17.9701V15.7242H17.6876Z" fill="currentColor"/>
</svg>
