<svg width="24" height="24" viewBox="0 0 24 24" fill="none" xmlns="http://www.w3.org/2000/svg">
<path d="M13.25 1.99933H10.75V5.74966H13.25V1.99933Z" fill="currentColor"/>
<path d="M13.25 18.2504H10.75V22.0007H13.25V18.2504Z" fill="currentColor"/>
<path d="M5.75 10.7499H2V13.2502H5.75V10.7499Z" fill="currentColor"/>
<path d="M22 10.7499H18.25V13.2502H22V10.7499Z" fill="currentColor"/>
<path d="M5.81173 4.0455L4.04409 5.81355L6.69593 8.46525L8.46357 6.6972L5.81173 4.0455Z" fill="currentColor"/>
<path d="M17.3029 15.5379L15.5352 17.306L18.1871 19.9577L19.9547 18.1896L17.3029 15.5379Z" fill="currentColor"/>
<path d="M6.69556 15.5385L4.04419 18.1906L5.81214 19.9584L8.46352 17.3062L6.69556 15.5385Z" fill="currentColor"/>
<path d="M18.1864 4.04672L15.535 6.69888L17.3029 8.46662L19.9543 5.81446L18.1864 4.04672Z" fill="currentColor"/>
<path d="M11.785 16.2928H12.975C13.5025 14.4401 14.52 12.3924 15.7225 10.7723H12.215V7.70577H11.025C10.4975 9.55843 9.47999 11.6061 8.27749 13.2262H11.785V16.2928Z" fill="currentColor"/>
</svg>
