<svg width="24" height="24" viewBox="0 0 24 24" fill="none" xmlns="http://www.w3.org/2000/svg">
<path d="M13.25 2H10.75V6.37537H13.25V2Z" fill="currentColor"/>
<path d="M2 10.7506V13.2508H6.37499V10.7506H2Z" fill="currentColor"/>
<path d="M17.625 10.7506V13.2508H22V10.7506H17.625Z" fill="currentColor"/>
<path d="M7.32132 9.09037L9.08882 7.32146L5.81253 4.04493L4.04503 5.81258L7.32132 9.09037Z" fill="currentColor"/>
<path d="M16.6775 9.09037L19.955 5.81258L18.1875 4.04493L14.91 7.32146L16.6775 9.09037Z" fill="currentColor"/>
<path d="M17.2313 15.7783L14.595 14.477C14.4775 14.4307 14.3663 14.3945 14.2613 14.372C14.1563 14.3482 14.0325 14.337 13.8925 14.337H13.26V10.4704C13.26 10.1066 13.1425 9.80782 12.9088 9.57405C12.675 9.34028 12.37 9.2228 11.995 9.2228C11.6312 9.2228 11.3325 9.34028 11.0988 9.57405C10.865 9.80782 10.7475 10.1079 10.7475 10.4704V17.3435L8.79629 16.8684C8.50379 16.7984 8.23627 16.7772 7.99627 16.8072C7.75627 16.8372 7.55379 16.9447 7.39004 17.1322L6.74002 17.8698L9.36124 20.555L10.7638 22.0001H17.2875L17.4887 20.845C17.495 20.8175 17.5112 20.7975 17.515 20.77L18.0425 17.5535C18.0887 17.1672 18.0488 16.8209 17.92 16.5159C17.7913 16.2109 17.5625 15.9646 17.235 15.7771L17.2313 15.7783Z" fill="currentColor"/>
</svg>
