<svg width="24" height="24" viewBox="0 0 24 24" fill="none" xmlns="http://www.w3.org/2000/svg">
<path fillRule="evenodd" clipRule="evenodd" d="M14.6046 8.70561C19.4167 11.4839 19.4168 11.6152 19.4168 21.7188H5.25012C5.25012 11.6151 5.25013 11.4839 10.0623 8.70561H14.6046ZM11.7009 11.7406C11.7073 12.0043 11.7022 12.2916 11.7024 12.5571C11.384 12.6362 11.0261 12.7559 10.7835 12.9842C10.327 13.4137 10.1768 13.8592 10.2168 14.4865C10.2889 15.6128 11.2088 15.8875 12.1554 16.0762C12.5755 16.1779 13.1495 16.2662 13.1779 16.8071C13.2195 17.6006 12.1255 17.714 11.6659 17.2874C11.4795 17.1143 11.4621 16.8093 11.4619 16.5645H10.1171C10.1473 17.6429 10.6313 18.2954 11.705 18.5204L11.7047 19.3829L12.9525 19.3823L12.9507 18.5193C13.4043 18.4536 13.8656 18.2194 14.1575 17.8582C14.4809 17.4579 14.5245 16.9593 14.4757 16.4636C14.4039 15.8057 14.0007 15.4116 13.404 15.1726C12.8818 14.9634 12.2125 14.9579 11.7415 14.6466C11.6179 14.546 11.5527 14.4317 11.5361 14.2796C11.4504 13.4946 12.579 13.3427 13.0366 13.7548C13.2404 13.9383 13.2513 14.2216 13.2583 14.4809L14.5496 14.4812C14.5409 13.3882 14.0238 12.7565 12.9539 12.5518L12.953 11.7394L11.7009 11.7406Z" fill="currentColor"/>
<path d="M14.3818 6.98018H10.2848L8.87523 2.28131H15.7914L14.3818 6.98018Z" fill="currentColor"/>
</svg>
