<svg width="24" height="24" viewBox="0 0 24 24" fill="none" xmlns="http://www.w3.org/2000/svg">
<path fill-rule="evenodd" clip-rule="evenodd" d="M5.75 3.25L4.08333 8.25H2V12H3.25V20.75H5.75V18.25H18.25V20.75H20.75V12H22V8.25H19.9167L18.25 3.25H5.75ZM7 13.25C6.30964 13.25 5.75 13.8096 5.75 14.5C5.75 15.1904 6.30964 15.75 7 15.75C7.69036 15.75 8.25 15.1904 8.25 14.5C8.25 13.8096 7.69036 13.25 7 13.25ZM16.4481 5.75H7.5519L5.88523 10.75H18.1148L16.4481 5.75ZM17 13.25C16.3096 13.25 15.75 13.8096 15.75 14.5C15.75 15.1904 16.3096 15.75 17 15.75C17.6904 15.75 18.25 15.1904 18.25 14.5C18.25 13.8096 17.6904 13.25 17 13.25Z" fill="white"/>
</svg>
