<svg width="24" height="24" viewBox="0 0 24 24" fill="none" xmlns="http://www.w3.org/2000/svg">
<path d="M22 13.25V10.75L19.2475 10.0613C19.075 9.41876 18.8213 8.81001 18.495 8.24626L19.955 5.81248L18.1875 4.04498L15.7538 5.50498C15.19 5.17873 14.5813 4.92499 13.9388 4.75249L13.25 2H10.75L10.0613 4.75249C9.41876 4.92499 8.81001 5.17873 8.24626 5.50498L5.81252 4.04498L4.04502 5.81248L5.50502 8.24626C5.17877 8.81001 4.92499 9.41876 4.75249 10.0613L2 10.75V13.25L4.75249 13.9387C4.92499 14.5812 5.17877 15.19 5.50502 15.7537L4.04502 18.1875L5.81252 19.955L8.24626 18.495C8.81001 18.8213 9.41876 19.075 10.0613 19.2475L10.75 22H13.25L13.9388 19.2475C14.5813 19.075 15.19 18.8213 15.7538 18.495L18.1875 19.955L19.955 18.1875L18.495 15.7537C18.8213 15.19 19.075 14.5812 19.2475 13.9387L22 13.25ZM12.975 16.2925H11.785V13.2262H8.2775C9.48 11.6075 10.4975 9.55875 11.025 7.70625H12.215V10.7725H15.7225C14.52 12.3913 13.5025 14.44 12.975 16.2925Z" fill="currentColor"/>
</svg>
