<svg width="24" height="24" viewBox="0 0 24 24" fill="none" xmlns="http://www.w3.org/2000/svg">
<path fill-rule="evenodd" clip-rule="evenodd" d="M20.8572 10.6694L21.5186 22.5H4L4.66051 10.6694H20.8572ZM8.34482 13.0478C7.59281 13.0478 6.983 13.6576 6.98295 14.4096C6.98295 15.1617 7.59278 15.7715 8.34482 15.7715C9.0967 15.7713 9.70579 15.1616 9.70579 14.4096C9.70574 13.6577 9.09667 13.0479 8.34482 13.0478ZM17.1738 13.0478C16.4218 13.0478 15.812 13.6576 15.812 14.4096C15.812 15.1617 16.4218 15.7715 17.1738 15.7715C17.9258 15.7714 18.5348 15.1617 18.5348 14.4096C18.5348 13.6576 17.9258 13.0478 17.1738 13.0478Z" fill="white"/>
<path d="M12.7589 2.5C15.8822 2.5 18.4247 5.04229 18.4247 8.16584H15.9221C15.9221 6.42136 14.5032 5.00267 12.7589 5.00266C11.0145 5.00266 9.59659 6.42261 9.59659 8.16584H7.09393C7.09393 5.04229 9.6356 2.5 12.7589 2.5Z" fill="white"/>
</svg>
