<svg width="24" height="24" viewBox="0 0 24 24" fill="none" xmlns="http://www.w3.org/2000/svg">
<path fill-rule="evenodd" clip-rule="evenodd" d="M22 4.27942H2V9.42648C3.38071 9.42648 4.5 10.5787 4.5 12C4.5 13.4213 3.38071 14.5735 2 14.5735V19.7206H22V14.5735C20.6193 14.5735 19.5 13.4213 19.5 12C19.5 10.5787 20.6193 9.42648 22 9.42648V4.27942ZM12 14.5735C13.3807 14.5735 14.5 13.4213 14.5 12C14.5 10.5787 13.3807 9.42648 12 9.42648C10.6193 9.42648 9.5 10.5787 9.5 12C9.5 13.4213 10.6193 14.5735 12 14.5735Z" fill="white"/>
</svg>
