<svg width="24" height="24" viewBox="0 0 24 24" fill="none" xmlns="http://www.w3.org/2000/svg">
<path d="M12.9268 8.26509L13.4799 8.4098L13.6726 8.45774L15.165 8.81907L15.5263 10.3132L15.5742 10.5059L15.718 11.0598H17.1625V15.9276H6.66886L6.23562 17.9517H14.1298C15.2368 17.9518 16.1512 18.8675 16.1513 19.9759C16.1513 21.0842 15.2368 21.9999 14.1298 22C13.0228 21.9998 12.1083 21.0842 12.1083 19.9759H8.06534C8.06532 21.0843 7.15006 22 6.04297 22C4.93604 21.9998 4.02151 21.0841 4.02148 19.9759V18.6025L5.0087 13.8794L4.16619 8.84304H2V6.81889H12.9268V8.26509Z" fill="currentColor"/>
<path d="M17.2104 4.40945L17.6925 6.31374L19.5932 6.79492L19.7859 6.84286V7.71112L19.5932 7.75906L17.6925 8.24112L17.2104 10.1445L17.1625 10.3372H16.272L16.2241 10.1445L15.7669 8.24112L13.8413 7.75906L13.6726 7.71112V6.84286L13.6966 6.81889H13.7569L13.8413 6.79492L15.7669 6.31374L16.2241 4.40945L16.272 4.2168H17.1625L17.2104 4.40945Z" fill="currentColor"/>
<path d="M20.3638 2.12074L20.6763 3.32546L21.8793 3.63885L22 3.66282V4.2168L21.8793 4.24077L20.6763 4.55415L20.3638 5.75888L20.3398 5.87962H19.7859L19.7619 5.75888L19.4485 4.55415L18.2456 4.24077L18.1248 4.2168V3.66282L18.2456 3.63885L19.4485 3.32546L19.7619 2.12074L19.7859 2H20.3398L20.3638 2.12074Z" fill="currentColor"/>
</svg>
