<svg width="24" height="24" viewBox="0 0 24 24" fill="none" xmlns="http://www.w3.org/2000/svg">
<path d="M16.4041 5.48865C18.2612 6.62852 19.5988 8.47816 20 10.6384H16.0871C15.5011 9.04932 13.9209 7.91058 12.0625 7.91055C9.7052 7.91055 7.7942 9.7425 7.79419 12.0023C7.79419 14.2622 9.70519 16.0941 12.0625 16.0941C13.9209 16.0941 15.5011 14.9554 16.0871 13.3663H20C19.3486 16.8735 16.2295 19.5616 12.4253 19.7232L11.7892 22L11.4251 21.9994L6.84557 22L7.80518 18.5663C5.52073 17.2018 4 14.7726 4 12.0023C4 7.8183 7.46813 4.41104 11.7989 4.2777L12.4357 2L12.7997 2.00059L17.3793 2L16.4041 5.48865Z" fill="white"/>
</svg>
