<svg width="24" height="24" viewBox="0 0 24 24" fill="none" xmlns="http://www.w3.org/2000/svg">
<path fillRule="evenodd" clipRule="evenodd" d="M10.6958 7.09772H13.3042L13.7215 5.32452H19.5624L22 9.18388L19.4968 18.6755H16.8137L14.4001 14.27H9.59989L7.18626 18.6755H4.50345L2 9.18388L4.43762 5.32452H10.2785L10.6958 7.09772ZM17.2221 10.8985C16.7741 10.8985 16.4108 11.2616 16.4107 11.7097C16.4107 12.1577 16.774 12.5211 17.2221 12.5211C17.6701 12.521 18.0332 12.1577 18.0332 11.7097C18.0332 11.2617 17.6701 10.8986 17.2221 10.8985ZM6.43313 8.19171C6.27541 8.19171 6.14754 8.31962 6.1475 8.47734V9.61986H5.00498C4.84725 9.61986 4.71939 9.74777 4.71935 9.90549V10.7624C4.71935 10.9201 4.84723 11.048 5.00498 11.048H6.1475V12.1905C6.1475 12.3483 6.27538 12.4762 6.43313 12.4762H7.29002C7.44777 12.4762 7.57565 12.3483 7.57565 12.1905V11.048H8.71818C8.87593 11.048 9.00381 10.9201 9.00381 10.7624V9.90549C9.00377 9.74777 8.8759 9.61986 8.71818 9.61986H7.57565V8.47734C7.57562 8.31962 7.44775 8.19171 7.29002 8.19171H6.43313ZM15.8023 9.47872C15.3543 9.47872 14.9909 9.84209 14.9909 10.2901C14.991 10.7382 15.3543 11.1013 15.8023 11.1013C16.2503 11.1012 16.6134 10.7381 16.6135 10.2901C16.6134 9.84213 16.2503 9.47879 15.8023 9.47872ZM18.6419 9.47872C18.1938 9.47872 17.8305 9.84209 17.8305 10.2901C17.8305 10.7382 18.1939 11.1013 18.6419 11.1013C19.0899 11.1012 19.453 10.7381 19.453 10.2901C19.453 9.84212 19.0899 9.47878 18.6419 9.47872ZM17.2221 8.05893C16.7741 8.05893 16.4108 8.42208 16.4107 8.87008C16.4107 9.31815 16.774 9.68151 17.2221 9.68151C17.6701 9.68143 18.0332 9.31811 18.0332 8.87008C18.0332 8.42212 17.6701 8.05901 17.2221 8.05893Z" fill="currentColor"/>
</svg>
