<svg width="24" height="24" viewBox="0 0 24 24" fill="none" xmlns="http://www.w3.org/2000/svg">
<path fill-rule="evenodd" clip-rule="evenodd" d="M10.6958 7.09766H13.3042L13.7215 5.32446H19.5624L22 9.18382L19.4968 18.6755H16.8137L14.4001 14.2699H9.59989L7.18626 18.6755H4.50345L2 9.18382L4.43762 5.32446H10.2785L10.6958 7.09766ZM17.2221 10.8984C16.7741 10.8984 16.4108 11.2616 16.4107 11.7096C16.4107 12.1577 16.774 12.521 17.2221 12.521C17.6701 12.5209 18.0332 12.1576 18.0332 11.7096C18.0332 11.2616 17.6701 10.8985 17.2221 10.8984ZM6.43313 8.19165C6.27541 8.19165 6.14754 8.31956 6.1475 8.47728V9.6198H5.00498C4.84725 9.6198 4.71939 9.74771 4.71935 9.90543V10.7623C4.71935 10.9201 4.84723 11.048 5.00498 11.048H6.1475V12.1905C6.1475 12.3482 6.27538 12.4761 6.43313 12.4761H7.29002C7.44777 12.4761 7.57565 12.3482 7.57565 12.1905V11.048H8.71818C8.87593 11.048 9.00381 10.9201 9.00381 10.7623V9.90543C9.00377 9.74771 8.8759 9.6198 8.71818 9.6198H7.57565V8.47728C7.57562 8.31956 7.44775 8.19165 7.29002 8.19165H6.43313ZM15.8023 9.47866C15.3543 9.47866 14.9909 9.84203 14.9909 10.2901C14.991 10.7381 15.3543 11.1012 15.8023 11.1012C16.2503 11.1012 16.6134 10.7381 16.6135 10.2901C16.6134 9.84207 16.2503 9.47873 15.8023 9.47866ZM18.6419 9.47866C18.1938 9.47866 17.8305 9.84203 17.8305 10.2901C17.8305 10.7381 18.1939 11.1012 18.6419 11.1012C19.0899 11.1012 19.453 10.7381 19.453 10.2901C19.453 9.84206 19.0899 9.47872 18.6419 9.47866ZM17.2221 8.05887C16.7741 8.05887 16.4108 8.42201 16.4107 8.87002C16.4107 9.31809 16.774 9.68145 17.2221 9.68145C17.6701 9.68137 18.0332 9.31805 18.0332 8.87002C18.0332 8.42206 17.6701 8.05895 17.2221 8.05887Z" fill="white"/>
</svg>
