<svg width="24" height="24" viewBox="0 0 24 24" fill="none" xmlns="http://www.w3.org/2000/svg">
<path d="M10.2596 2.5891C11.2866 1.80362 12.7126 1.80365 13.7397 2.5891L14.7731 3.37923C15.17 3.68273 15.6397 3.87696 16.1349 3.94298L17.424 4.11521C18.7056 4.28612 19.7141 5.29451 19.8849 6.57615L20.0563 7.86522C20.1223 8.36047 20.3174 8.8302 20.6209 9.22708L21.411 10.2596C22.1964 11.2865 22.1962 12.7126 21.411 13.7397L20.6209 14.7731C20.3174 15.17 20.1223 15.6396 20.0563 16.1349L19.8849 17.424C19.7141 18.7057 18.7056 19.714 17.424 19.885L16.1349 20.0563C15.6396 20.1223 15.17 20.3174 14.7731 20.6209L13.7397 21.4111C12.7126 22.1964 11.2866 22.1964 10.2596 21.4111L9.22618 20.6209C8.82937 20.3175 8.36036 20.1223 7.86521 20.0563L6.57525 19.885C5.29377 19.7139 4.28604 18.7055 4.1152 17.424L3.94297 16.1349C3.87695 15.6397 3.68273 15.17 3.37922 14.7731L2.5891 13.7397C1.80366 12.7126 1.80361 11.2866 2.5891 10.2596L3.37922 9.22708C3.68274 8.83021 3.87692 8.36046 3.94297 7.86522L4.1152 6.57615C4.28602 5.2946 5.29376 4.28622 6.57525 4.11521L7.86521 3.94298C8.36027 3.87693 8.82942 3.68259 9.22618 3.37923L10.2596 2.5891ZM10.6289 6.28584C9.89062 8.74426 8.44906 11.4684 6.76169 13.6278H11.7013V17.7143H13.3704C14.1086 15.256 15.5503 12.5317 17.2376 10.3723H12.2988V6.28584H10.6289Z" fill="white"/>
</svg>
