<svg width="24" height="24" viewBox="0 0 24 24" fill="none" xmlns="http://www.w3.org/2000/svg">
<g clip-path="url(#clip0_4742_24548)">
<path d="M18.7069 8.29279C18.8944 8.48031 18.9997 8.73462 18.9997 8.99979C18.9997 9.26495 18.8944 9.51926 18.7069 9.70679L12.7069 15.7068C12.5194 15.8943 12.2651 15.9996 11.9999 15.9996C11.7348 15.9996 11.4804 15.8943 11.2929 15.7068L5.29292 9.70679C5.11076 9.51818 5.00997 9.26558 5.01224 9.00339C5.01452 8.74119 5.11969 8.49038 5.3051 8.30497C5.49051 8.11956 5.74132 8.01439 6.00352 8.01211C6.26571 8.00983 6.51832 8.11063 6.70692 8.29279L11.9999 13.5858L17.2929 8.29279C17.4804 8.10532 17.7348 8 17.9999 8C18.2651 8 18.5194 8.10532 18.7069 8.29279Z" fill="currentColor"/>
</g>
<defs>
<clipPath id="clip0_4742_24548">
<rect width="24" height="24" fill="currentColor"/>
</clipPath>
</defs>
</svg>
