<svg width="24" height="24" viewBox="0 0 24 24" fill="none" xmlns="http://www.w3.org/2000/svg">
<path d="M12 2.76929C13.9451 2.76929 15.7609 3.32446 17.2969 4.28589L14.165 6.19116C13.4839 5.9672 12.7561 5.84644 12 5.84644C8.18413 5.84644 5.07811 8.95245 5.07715 12.7683C5.07681 14.9436 6.0798 16.8844 7.64844 18.1541H16.3516C17.9198 16.8848 18.9229 14.9443 18.9229 12.7693C18.9229 12.0132 18.8021 11.2854 18.5781 10.6042L20.4834 7.47241C21.4448 9.00841 22 10.8242 22 12.7693C22 14.752 21.4229 16.5997 20.4277 18.1541C19.6345 19.3929 18.5757 20.4461 17.3311 21.2312H6.66895C5.42429 20.4461 4.36552 19.3929 3.57227 18.1541C2.57707 16.5997 2 14.752 2 12.7693C2 7.24621 6.47692 2.76929 12 2.76929Z" fill="currentColor"/>
<path d="M18.1289 7.13159L13.9668 13.9734C13.5605 14.6329 12.8317 15.073 12 15.073C10.7257 15.0727 9.69238 14.0397 9.69238 12.7654C9.69241 11.9339 10.1322 11.2049 10.792 10.7986L17.6338 6.63647L18.1289 7.13159Z" fill="currentColor"/>
</svg>
