<svg width="57" height="17" viewBox="0 0 57 17" fill="none" xmlns="http://www.w3.org/2000/svg">
<path d="M41.9664 5.82196H48.2834C46.1188 8.71106 44.2855 12.3662 43.3358 15.6712H52.4359V5.82196H56.5V0.350187H41.9664V5.82196ZM31.7619 15.6712H42.2314V10.1994H35.9143C38.0789 7.31028 39.9122 3.65512 40.8619 0.350187H31.7619V15.6712H31.7619ZM20.3647 8.01065C20.3647 5.75628 21.1157 4.59627 22.5956 4.59627C24.0754 4.59627 24.8264 5.75628 24.8264 8.01065C24.8264 10.265 24.0754 11.425 22.5956 11.425C21.1157 11.425 20.3647 10.265 20.3647 8.01065ZM5.56606 6.60987V3.93966H6.86922C7.73063 3.93966 8.17239 4.3993 8.17239 5.27476C8.17239 6.15023 7.73063 6.60987 6.86922 6.60987H5.56606ZM5.56606 12.0816V9.23631H6.95759C7.88528 9.23631 8.34912 9.71782 8.34912 10.659C8.34912 11.6001 7.88528 12.0816 6.95759 12.0816H5.56606ZM0 15.6712H8.92338C11.9494 15.6712 14.0035 13.8764 14.0035 11.25C14.0035 9.60845 13.12 8.47032 11.3972 7.74803C12.8991 7.04765 13.6059 5.90953 13.6059 4.46498C13.6059 2.01363 11.6843 0.350187 8.85713 0.350187H0V15.6712ZM22.5956 16.0213C27.3886 16.0213 30.5692 12.8258 30.5692 8.01065C30.5692 3.19549 27.3886 0 22.5956 0C17.8026 0 14.622 3.19552 14.622 8.01069C14.622 12.8259 17.8026 16.0214 22.5956 16.0214" fill="white"/>
</svg>
